<svg width="258" height="152" viewBox="0 0 258 152" fill="none" xmlns="http://www.w3.org/2000/svg">
<g clip-path="url(#clip0_1060_6186)">
<path d="M131.359 58.8913C131.359 55.0453 131.449 51.2634 131.34 47.4815C131.07 38.1842 130.66 28.8933 130.397 19.6024C130.263 14.8574 130.218 10.0995 130.32 5.35456C130.384 2.14415 131.654 0.49399 134.474 0.288531C135.59 0.205065 136.705 0.115176 137.827 0.108752C142.525 0.0959049 147.237 -0.160915 151.91 0.172963C161.532 0.859991 171.166 1.59197 180.731 2.81835C189.019 3.88421 197.365 5.12342 205.429 7.24871C220.295 11.1654 234.865 16.0773 248.16 24.0905C250.801 25.6829 253.282 27.5513 255.827 29.3042C257.025 30.1325 257.391 31.3139 257.487 32.7522C258.192 42.9035 257.519 53.042 257.436 63.1933C257.314 78.2052 257.897 93.217 258 108.235C258.038 113.674 257.538 119.119 257.307 124.563C257.198 127.125 255.897 129.013 253.923 130.458C248.872 134.15 243.141 136.493 237.34 138.664C224.897 143.312 212.045 146.349 198.916 148.269C186.122 150.144 173.263 151.152 160.327 151.12C159.654 151.12 158.981 151.383 158.301 151.486C157.519 151.608 156.686 151.897 155.948 151.749C149.359 150.433 142.788 151.101 136.218 151.89C135.634 151.961 135.045 152.019 134.461 152.006C132.256 151.968 130.974 150.459 131.057 148.256C131.314 141.534 131.628 134.811 131.698 128.082C131.769 121.616 131.455 115.151 131.493 108.685C131.551 99.7085 131.872 90.7386 131.91 81.7623C131.929 77.12 131.628 72.4714 131.378 67.8291C131.346 67.2512 130.923 66.4165 130.442 66.179C123.993 62.975 117.506 59.8609 111.025 56.7275C110.859 56.644 110.641 56.6633 110.045 56.5798C110.788 57.6585 111.346 58.4483 111.891 59.2509C119.718 70.7634 123.628 83.2776 121.391 97.2878C120.564 102.476 118.775 107.324 114.936 111.15C110.807 115.266 105.795 116.428 100.346 114.868C97.5254 114.059 94.9485 112.402 92.269 111.112C91.8588 110.913 91.487 110.637 90.8652 110.251C90.6729 111.073 90.5254 111.664 90.4036 112.268C89.4293 117.013 87.5767 121.353 84.2562 124.936C78.8908 130.727 72.1408 132.05 64.8908 129.957C54.1536 126.862 46.878 119.793 43.5318 109.051C41.8844 103.76 41.9229 98.3023 43.3203 92.896C43.8139 90.9954 43.7177 90.9697 41.7434 90.8606C29.6344 90.2121 18.5383 86.6421 9.20492 78.7188C2.53184 73.0428 -1.28867 65.9221 0.397231 56.7917C1.84595 48.9519 6.46775 43.3915 13.3203 39.6032C19.1216 36.3992 25.4036 34.8518 31.9998 34.5693C32.7883 34.5372 33.5767 34.5693 34.6793 34.5693C34.3972 33.4842 34.1857 32.688 33.9742 31.8918C31.3267 21.8625 35.8395 12.3404 45.4998 8.91811C54.0383 5.89391 62.0383 7.53762 68.9165 13.6181C70.6985 15.1912 72.237 17.0533 73.6793 18.5622C75.1024 17.3037 76.4998 16.0131 77.9549 14.7803C86.7049 7.35785 100.173 9.99038 105.519 20.1353C109.378 27.4486 109.596 35.1664 108.16 43.0769C107.872 44.65 107.314 46.1653 107.032 47.7384C106.955 48.1814 107.32 49.0675 107.647 49.1574C115.397 51.3533 122.487 55.1031 129.724 58.4997C130.109 58.6795 130.506 58.8336 130.904 58.9812C130.987 59.0133 131.109 58.9491 131.352 58.9042L131.359 58.8913ZM250.5 75.2709C250.564 75.2709 250.628 75.2709 250.692 75.2709C250.692 71.7972 250.647 68.3235 250.698 64.8499C250.833 56.4129 251.154 47.976 251.134 39.539C251.115 33.5869 250.91 33.6062 245.833 30.46C232.75 22.3633 218.32 17.5541 203.615 13.6567C195.756 11.5764 187.615 10.5041 179.551 9.30337C173.602 8.41729 167.57 8.06415 161.577 7.48627C160.525 7.38354 159.705 7.46702 159.878 8.99517C160.269 12.3918 160.557 15.7948 160.769 19.2043C161.577 32.0202 161.557 44.8233 160.551 57.6393C159.352 72.8695 158.205 88.1125 158.237 103.407C158.269 116.55 157.884 129.7 159.359 142.805C159.609 145.052 159.66 145.213 161.827 145.084C168.32 144.699 174.827 144.423 181.301 143.8C198.282 142.176 215.038 139.357 231.231 133.777C237.237 131.71 243.154 129.424 248.602 126.079C249.852 125.315 250.801 124.441 250.872 122.849C251.038 119.061 251.461 115.266 251.397 111.484C251.192 99.4131 250.814 87.342 250.5 75.2709ZM49.0062 100.158C49.1023 111.003 55.769 120.107 65.4998 123.279C73.3652 125.841 79.7626 122.727 82.6985 114.977C84.0831 111.317 84.5575 107.535 84.5447 103.657C84.5383 101.05 86.6729 99.4709 89.0895 100.434C90.3459 100.935 91.4613 101.821 92.5895 102.604C94.987 104.261 97.1857 106.283 99.7562 107.593C105.115 110.322 109.66 108.685 112.493 103.349C114.487 99.5929 115.5 95.5093 115.41 91.31C115.09 76.9788 110.666 64.4967 98.6665 55.6103C97.1344 54.4738 96.7434 52.5732 97.9101 51.0708C100.186 48.13 101.147 44.7142 101.788 41.1763C102.846 35.3333 102.686 29.5803 100.096 24.0777C97.0254 17.5541 89.9421 15.3197 83.6729 18.8832C80.8908 20.4627 79.2434 22.9604 77.9806 25.7984C77.0831 27.8146 75.628 28.6814 73.8139 28.1228C72.0254 27.5706 70.487 26.7359 69.4806 24.8803C66.3716 19.1593 61.9036 15.1078 55.1601 14.2731C47.5126 13.3292 40.0254 17.766 39.9677 26.1387C39.9421 29.8114 40.737 33.2915 43.7177 35.7892C45.4229 37.2146 45.9613 38.9033 44.9165 40.4957C43.769 42.2421 41.628 42.5953 39.6985 41.5423C38.7498 41.0286 37.628 40.592 36.5703 40.5599C28.9421 40.3544 21.6601 41.7798 15.2242 46.0561C9.40364 49.9214 6.03826 55.2957 6.83313 62.5512C7.37159 67.4695 10.2818 71.1936 14.0318 74.083C23.66 81.499 34.6088 84.87 46.7754 84.1123C48.2177 84.0224 49.5383 84.2664 50.2434 85.5827C51.1857 87.3355 51.8203 89.1847 50.9549 91.2394C49.6793 94.27 48.8908 97.4227 49.0254 100.151L49.0062 100.158ZM138.968 126.098L138.795 126.098C138.795 131.761 138.833 137.424 138.763 143.088C138.743 144.436 139.102 144.834 140.474 144.763C143.987 144.577 147.506 144.507 151.025 144.481C152.795 144.468 152.916 144.423 152.75 142.567C152.474 139.428 152.025 136.294 151.936 133.148C151.237 109.519 151.493 85.9101 153.583 62.3457C154.878 47.7833 155.166 33.2145 154.186 18.6328C153.949 15.1142 153.481 11.6149 153.173 8.10268C153.045 6.63231 152.519 5.9838 150.891 6.07369C146.84 6.28557 142.782 6.30484 138.731 6.40116C136.699 6.44611 136.647 6.45252 136.737 8.49434C137.179 18.5814 137.884 28.6621 138.051 38.7557C138.34 56.1175 138.243 73.4859 138.404 90.8542C138.513 102.611 138.775 114.361 138.968 126.117L138.968 126.098Z" fill="#FF0000"/>
<path d="M69.4404 52.8452C74.6071 52.858 78.4212 54.0459 81.0815 57.6929C84.5366 62.4379 83.4917 68.5505 78.7097 71.9278C72.6648 76.1913 62.5622 75.6391 57.0238 70.74C54.7289 68.711 54.3828 67.1186 55.4917 64.2614C56.1263 62.6305 56.3379 60.7556 57.2738 59.3495C60.3315 54.7586 64.9404 52.9736 69.4469 52.8452L69.4404 52.8452Z" fill="#FF0000"/>
</g>
<defs>
<clipPath id="clip0_1060_6186">
<rect width="152" height="258" fill="white" transform="translate(0 152) rotate(-90)"/>
</clipPath>
</defs>
</svg>
