<svg width="340" height="353" viewBox="0 0 340 353" fill="none" xmlns="http://www.w3.org/2000/svg">
<path d="M279.992 127.266H302.417L311.994 168.84H313.162L311.527 127.266H333.951V225.297H311.527L301.949 183.604H300.782L302.417 225.297H279.992V127.266Z" fill="white"/>
<path fill-rule="evenodd" clip-rule="evenodd" d="M273.938 121.145H339.999V231.414H273.938V121.145ZM300.778 183.602H301.946L311.523 225.295H333.948V127.264H311.523L313.158 168.838H311.99L302.413 127.264H279.989V225.295H302.413L300.778 183.602Z" fill="#FF0000"/>
<path d="M234.695 127.266H276.741V146.163H259.222V166.478H274.172V185.376H259.222V206.399H276.741V225.297H234.695V127.266Z" fill="white"/>
<path fill-rule="evenodd" clip-rule="evenodd" d="M228.641 121.145H282.789V152.281H265.27V160.357H280.219V191.493H265.27V200.278H282.789V231.414H228.641V121.145ZM259.219 206.397V185.374H274.168V166.476H259.219V146.161H276.738V127.264H234.692V225.295H276.738V206.397H259.219Z" fill="#FF0000"/>
<path d="M200.775 127.266C219.929 127.266 231.842 140.612 231.842 173.919V178.643C231.842 211.832 219.929 225.297 200.775 225.297H178.117V127.266H200.775ZM201.943 208.879H202.644C206.148 208.879 207.316 206.99 207.316 202.62V148.88C207.316 144.51 206.148 142.62 202.644 142.62H201.943V208.879Z" fill="white"/>
<path fill-rule="evenodd" clip-rule="evenodd" d="M172.07 231.414V121.145H200.78C211.911 121.145 221.677 125.13 228.397 134.51C234.853 143.524 237.898 156.709 237.898 173.917V178.642C237.898 195.796 234.851 208.976 228.4 217.999C221.688 227.387 211.927 231.414 200.78 231.414H172.07ZM201.947 142.618H202.648C206.152 142.618 207.32 144.508 207.32 148.878V202.618C207.32 206.988 206.152 208.878 202.648 208.878H201.947V142.618ZM231.847 173.917C231.847 140.61 219.934 127.264 200.78 127.264H178.122V225.295H200.78C219.934 225.295 231.847 211.83 231.847 178.642V173.917Z" fill="#FF0000"/>
<path d="M145.623 127.266C163.96 127.266 175.639 137.895 175.639 152.659V154.785C175.639 165.769 170.851 172.856 162.091 177.817V178.998C170.734 183.604 172.836 189.746 173.07 201.438L173.187 206.99C173.42 217.147 174.004 220.808 175.873 224.115V225.297H153.448C151.813 221.281 150.996 215.493 150.879 207.816L150.645 194.824C150.529 190.454 149.711 187.383 145.74 187.383V225.297H121.914V127.266H145.623ZM145.74 172.029H147.258C149.594 172.029 151.113 170.376 151.113 166.832V147.699C151.113 144.155 149.594 142.62 147.258 142.62H145.74V172.029Z" fill="white"/>
<path fill-rule="evenodd" clip-rule="evenodd" d="M153.453 225.295C152.754 223.579 152.205 221.54 151.796 219.168C151.247 215.989 150.95 212.212 150.883 207.815L150.65 194.823C150.533 190.453 149.715 187.382 145.744 187.382V225.295H121.918V127.264H145.628C163.964 127.264 175.644 137.894 175.644 152.657V154.783C175.644 163.618 172.546 169.931 166.776 174.645C165.617 175.591 164.351 176.473 162.98 177.298C162.69 177.473 162.395 177.645 162.096 177.815V178.996C162.42 179.169 162.734 179.343 163.04 179.521C164.455 180.34 165.678 181.21 166.734 182.152C171.542 186.439 172.89 192.209 173.074 201.437L173.191 206.988C173.324 212.787 173.572 216.468 174.107 219.175C174.51 221.21 175.075 222.695 175.877 224.114V225.295H153.453ZM179.241 206.846C179.241 206.848 179.241 206.85 179.241 206.852C179.478 217.153 180.124 219.295 181.131 221.078L181.928 222.489V231.414H115.867V121.145H145.628C155.927 121.145 164.92 124.137 171.443 129.772C178.035 135.467 181.695 143.532 181.695 152.657V154.783C181.695 161.211 180.281 166.881 177.307 171.766C175.763 174.303 173.866 176.516 171.688 178.458C173.564 180.326 175.079 182.474 176.23 184.989C178.412 189.756 179.003 195.27 179.124 201.313L179.241 206.846ZM145.744 142.618H147.263C149.599 142.618 151.117 144.154 151.117 147.697V166.831C151.117 170.374 149.599 172.027 147.263 172.027H145.744V142.618Z" fill="#FF0000"/>
<path d="M73.6814 127.266H110.705L119.582 224.115V225.297H96.1059L94.7044 202.265H87.1127L85.7112 225.297H64.9219V224.115L73.6814 127.266ZM88.2807 183.368H93.5364L91.5509 151.596H90.383L88.2807 183.368Z" fill="white"/>
<path fill-rule="evenodd" clip-rule="evenodd" d="M68.1628 121.145H116.226L125.637 223.831V231.414H58.875V223.834L68.1628 121.145ZM94.7087 202.263L96.1102 225.295H119.586V224.114L110.709 127.264H73.6858L64.9262 224.114V225.295H85.7155L87.1171 202.263H94.7087ZM93.5407 183.366L91.5552 151.594H90.3873L88.285 183.366H93.5407Z" fill="#FF0000"/>
<path d="M6.05469 170.973C6.05469 139.674 17.6173 125.855 35.8372 125.855C53.9403 125.855 62.8166 139.792 62.8166 161.288V165.068H39.6914C38.8738 161.525 38.757 157.391 38.757 153.257V144.753C38.757 142.745 37.9395 141.446 36.1876 141.446C34.4357 141.446 33.6181 142.745 33.6181 144.753V206.406C33.6181 208.414 34.4357 209.713 36.1876 209.713C37.9395 209.713 38.757 208.414 38.757 206.406V178.65H62.8166V225.304H48.8013L45.5311 215.264H44.3632C42.8448 220.934 39.6914 226.485 30.2311 226.485C16.3326 226.485 6.05469 212.312 6.05469 181.367V170.973Z" fill="white"/>
<path fill-rule="evenodd" clip-rule="evenodd" d="M68.8643 171.185H39.6658V172.529H68.8643V231.421H44.4201L43.4189 228.348C40.0513 231.125 35.6485 232.602 30.2276 232.602C20.8528 232.602 12.9542 227.653 7.71038 218.629C2.63653 209.897 0 197.381 0 181.365V170.972C0 154.72 2.97487 141.972 9.1746 133.135C15.6113 123.959 25.0059 119.734 35.8337 119.734C46.6224 119.734 55.2597 123.998 60.9892 131.887C66.5157 139.496 68.8643 149.817 68.8643 161.287V171.185ZM41.3039 221.855C42.7306 220.051 43.6185 217.89 44.2417 215.691C44.2821 215.548 44.3214 215.406 44.3597 215.263H45.5276L48.7979 225.302H62.8131V178.649H38.7536V206.404C38.7536 208.412 37.936 209.712 36.1841 209.712C34.4322 209.712 33.6146 208.412 33.6146 206.404V144.751C33.6146 142.743 34.4322 141.444 36.1841 141.444C37.936 141.444 38.7536 142.743 38.7536 144.751V153.255C38.7536 157.351 38.8682 161.448 39.6658 164.969C39.6731 165.002 39.6805 165.034 39.6879 165.066H62.8131V161.287C62.8131 160.496 62.8011 159.716 62.7771 158.947C62.148 138.785 53.2713 125.854 35.8337 125.854C17.6138 125.854 6.0512 139.673 6.0512 170.972V181.365C6.0512 212.31 16.3291 226.483 30.2276 226.483C35.7733 226.483 39.1517 224.576 41.3039 221.855Z" fill="#FF0000"/>
<path d="M117.07 321.547H132.218V344.877H117.07V321.547Z" fill="white"/>
<path fill-rule="evenodd" clip-rule="evenodd" d="M111.023 315.488H138.273V350.934H111.023V315.488ZM117.075 321.546V344.876H132.222V321.546H117.075Z" fill="#FF0000"/>
<path d="M57.4375 293.553C57.4375 260.541 69.439 246.66 87.6162 246.66C105.444 246.66 114.299 260.425 114.299 282.821V285.387H91.2283C90.4127 281.888 90.2961 277.805 90.2961 273.723V265.324C90.2961 263.341 89.4805 262.058 87.7327 262.058C85.9849 262.058 85.1693 263.341 85.1693 265.324V327.614C85.1693 329.597 85.9849 330.88 87.7327 330.88C89.4805 330.88 90.2961 329.597 90.2961 327.614V318.632C90.2961 314.549 90.4127 310.467 91.2283 306.967H114.299V310.117C114.299 332.513 105.444 346.278 87.6162 346.278C69.439 346.278 57.4375 332.397 57.4375 299.385V293.553Z" fill="white"/>
<path fill-rule="evenodd" clip-rule="evenodd" d="M120.355 291.444H91.2248V300.909H120.355V310.116C120.355 321.972 118.034 332.443 112.575 340.111C106.897 348.088 98.3114 352.335 87.6205 352.335C76.7704 352.335 67.269 348.066 60.7453 338.667C54.4666 329.62 51.3906 316.462 51.3906 299.384V293.552C51.3906 276.475 54.4666 263.316 60.7453 254.27C67.2691 244.87 76.7704 240.602 87.6205 240.602C98.3114 240.602 106.897 244.849 112.575 252.826C118.034 260.493 120.355 270.964 120.355 282.82V291.444ZM91.2248 307C90.4162 310.492 90.3004 314.562 90.3004 318.631V327.613C90.3004 329.596 89.4848 330.879 87.737 330.879C85.9892 330.879 85.1736 329.596 85.1736 327.613V265.323C85.1736 263.34 85.9892 262.057 87.737 262.057C89.4848 262.057 90.3004 263.34 90.3004 265.323V273.722C90.3004 277.791 90.4162 281.861 91.2248 285.353C91.2274 285.364 91.23 285.375 91.2326 285.387H114.304V282.82C114.304 281.632 114.279 280.468 114.229 279.329C113.339 259.002 104.502 246.659 87.6205 246.659C69.4433 246.659 57.4418 260.541 57.4418 293.552V299.384C57.4418 332.396 69.4433 346.277 87.6205 346.277C104.663 346.277 113.506 333.698 114.252 313.024C114.286 312.072 114.304 311.102 114.304 310.116V306.967H91.2326C91.23 306.978 91.2274 306.989 91.2248 307Z" fill="#FF0000"/>
<path d="M39.4688 321.547H54.6164V344.877H39.4688V321.547Z" fill="white"/>
<path fill-rule="evenodd" clip-rule="evenodd" d="M33.4141 315.488H60.6641V350.934H33.4141V315.488ZM39.4653 321.546V344.876H54.6129V321.546H39.4653Z" fill="#FF0000"/>
<path d="M6.04688 344.873V248.055H46.5959V266.718H30.5161V287.715H44.382V306.379H30.5161V344.873H6.04688Z" fill="white"/>
<path fill-rule="evenodd" clip-rule="evenodd" d="M0 350.93V241.996H52.6514V272.776H36.5716V281.656H50.4375V312.436H36.5716V350.93H0ZM30.5204 306.378H44.3863V287.714H30.5204V266.718H46.6002V248.054H6.0512V344.872H30.5204V306.378Z" fill="#FF0000"/>
<path d="M164.227 6.05859H187.245L197.076 48.3062H198.275L196.597 6.05859H219.616V105.677H196.597L186.766 63.3089H185.567L187.245 105.677H164.227V6.05859Z" fill="white"/>
<path fill-rule="evenodd" clip-rule="evenodd" d="M158.172 0H225.663V111.734H158.172V0ZM185.563 63.3082H186.762L196.593 105.676H219.612V6.05785H196.593L198.272 48.3055H197.073L187.242 6.05785H164.223V105.676H187.242L185.563 63.3082Z" fill="#FF0000"/>
<path d="M66.62 105.677L56.7891 7.25881V6.05859H80.8869L84.7234 63.0689H85.9223L89.6389 6.05859H111.099V7.25881L101.268 105.677H66.62Z" fill="white"/>
<path fill-rule="evenodd" clip-rule="evenodd" d="M61.1481 111.734L50.7422 7.56021V0H117.155V7.5602L106.749 111.734H61.1481ZM85.9266 63.0682H84.7277L80.8912 6.05785H56.7934V7.25807L66.6244 105.676H101.273L111.103 7.25807V6.05785H89.6432L85.9266 63.0682Z" fill="#FF0000"/>
<path d="M15.0464 6.05859H53.0515L62.1631 104.476V105.677H38.0653L36.6266 82.2724H28.8338L27.3951 105.677H6.05469V104.476L15.0464 6.05859ZM30.0327 63.0689H35.4277L33.3896 30.7831H32.1907L30.0327 63.0689Z" fill="white"/>
<path fill-rule="evenodd" clip-rule="evenodd" d="M9.51995 0H58.5643L68.2109 104.196V111.734H0V104.199L9.51995 0ZM36.6231 82.2716L38.0618 105.676H62.1597V104.476L53.048 6.05785H15.0429L6.0512 104.476V105.676H27.3916L28.8303 82.2716H36.6231ZM35.4242 63.0682L33.3861 30.7823H32.1872L30.0292 63.0682H35.4242Z" fill="#FF0000"/>
<path d="M222.508 6.05859H275.02V25.2621H261.352V105.677H236.175V25.2621H222.508V6.05859Z" fill="white"/>
<path fill-rule="evenodd" clip-rule="evenodd" d="M216.461 0H281.075V31.3192H267.408V111.734H230.128V31.3192H216.461V0ZM236.18 25.2613V105.676H261.356V25.2613H275.024V6.05785H222.512V25.2613H236.18Z" fill="#FF0000"/>
<path d="M114.726 6.05859H152.731L161.843 104.476V105.677H137.745L136.306 82.2724H128.513L127.075 105.677H105.734V104.476L114.726 6.05859ZM129.712 63.0689H135.107L133.069 30.7831H131.87L129.712 63.0689Z" fill="white"/>
<path fill-rule="evenodd" clip-rule="evenodd" d="M109.2 0H158.244L167.891 104.196V111.734H99.6797V104.199L109.2 0ZM136.303 82.2716L137.741 105.676H161.839V104.476L152.728 6.05785H114.723L105.731 104.476V105.676H127.071L128.51 82.2716H136.303ZM135.104 63.0682L133.066 30.7823H131.867L129.709 63.0682H135.104Z" fill="#FF0000"/>
</svg>
