<svg width="1372" height="197" viewBox="0 0 1372 197" fill="none" xmlns="http://www.w3.org/2000/svg">
<path d="M1005.81 13.1484H1045.35L1062.24 85.7127H1064.29L1061.41 13.1484H1100.95V184.252H1061.41L1044.53 111.481H1042.47L1045.35 184.252H1005.81V13.1484Z" fill="white"/>
<path fill-rule="evenodd" clip-rule="evenodd" d="M995.141 2.46875H1111.61V194.933H995.141V2.46875ZM1042.46 111.482H1044.52L1061.41 184.253H1100.95V13.1495H1061.41L1064.29 85.7138H1062.23L1045.35 13.1495H1005.81V184.253H1045.35L1042.46 111.482Z" fill="#FF0000"/>
<path d="M925.953 13.1484H1000.09V46.1322H969.197V81.5897H995.555V114.574H969.197V151.268H1000.09V184.252H925.953V13.1484Z" fill="white"/>
<path fill-rule="evenodd" clip-rule="evenodd" d="M915.281 2.46875H1010.75V56.814H979.863V70.9101H1006.22V125.255H979.863V140.588H1010.75V194.933H915.281V2.46875ZM969.194 151.269V114.575H995.552V81.5908H969.194V46.1332H1000.08V13.1495H925.95V184.253H1000.08V151.269H969.194Z" fill="#FF0000"/>
<path d="M866.144 13.1484C899.915 13.1484 920.919 36.4432 920.919 94.5771V102.823C920.919 160.751 899.915 184.252 866.144 184.252H826.195V13.1484H866.144ZM868.203 155.597H869.439C875.617 155.597 877.676 152.299 877.676 144.671V50.8736C877.676 43.2461 875.617 39.9477 869.439 39.9477H868.203V155.597Z" fill="white"/>
<path fill-rule="evenodd" clip-rule="evenodd" d="M815.531 194.933V2.46875H866.149C885.774 2.46875 902.994 9.42494 914.841 25.7977C926.225 41.5296 931.593 64.5435 931.593 94.5781V102.824C931.593 132.765 926.222 155.769 914.847 171.519C903.013 187.905 885.804 194.933 866.149 194.933H815.531ZM868.208 39.9488H869.444C875.622 39.9488 877.681 43.2472 877.681 50.8747V144.672C877.681 152.3 875.622 155.598 869.444 155.598H868.208V39.9488ZM920.924 94.5781C920.924 36.4442 899.92 13.1495 866.149 13.1495H826.2V184.253H866.149C899.92 184.253 920.924 160.752 920.924 102.824V94.5781Z" fill="#FF0000"/>
<path d="M768.904 13.1484C801.233 13.1484 821.826 31.7018 821.826 57.4704V61.181C821.826 80.3529 813.383 92.7218 797.939 101.38V103.441C813.177 111.481 816.884 122.201 817.295 142.61L817.501 152.299C817.913 170.027 818.943 176.418 822.238 182.19V184.252H782.701C779.818 177.243 778.376 167.141 778.17 153.742L777.758 131.065C777.552 123.438 776.111 118.078 769.11 118.078V184.252H727.102V13.1484H768.904ZM769.11 91.2787H771.787C775.905 91.2787 778.582 88.3926 778.582 82.2082V48.8121C778.582 42.6277 775.905 39.9477 771.787 39.9477H769.11V91.2787Z" fill="white"/>
<path fill-rule="evenodd" clip-rule="evenodd" d="M782.705 184.253C781.474 181.258 780.505 177.699 779.784 173.559C778.816 168.01 778.293 161.417 778.175 153.743L777.763 131.066C777.557 123.439 776.116 118.079 769.115 118.079V184.253H727.106V13.1495H768.909C801.238 13.1495 821.831 31.7028 821.831 57.4714V61.1821C821.831 76.6021 816.369 87.6213 806.195 95.8485C804.153 97.5004 801.92 99.0398 799.503 100.48C798.992 100.785 798.472 101.085 797.944 101.381V103.443C798.515 103.744 799.07 104.049 799.609 104.358C802.103 105.789 804.26 107.307 806.122 108.951C814.599 116.434 816.975 126.505 817.3 142.611L817.506 152.3C817.741 162.421 818.178 168.847 819.122 173.572C819.832 177.124 820.829 179.714 822.242 182.191V184.253H782.705ZM828.172 152.051C828.172 152.055 828.173 152.059 828.173 152.062C828.591 170.043 829.73 173.781 831.506 176.892L832.911 179.355V194.933H716.438V2.46875H768.909C787.068 2.46875 802.924 7.69124 814.423 17.5266C826.047 27.4677 832.5 41.5447 832.5 57.4714V61.1821C832.5 72.4002 830.008 82.2976 824.764 90.8239C822.041 95.2515 818.696 99.1143 814.856 102.505C818.163 105.763 820.835 109.514 822.864 113.902C826.711 122.223 827.754 131.847 827.967 142.395L828.172 152.051ZM769.115 39.9488H771.792C775.91 39.9488 778.587 42.6287 778.587 48.8132V82.2092C778.587 88.3937 775.91 91.2798 771.792 91.2798H769.115V39.9488Z" fill="#FF0000"/>
<path d="M642.069 13.1484H707.346L722.997 182.19V184.252H681.606L679.135 144.053H665.75L663.279 184.252H626.625V182.19L642.069 13.1484ZM667.809 111.069H677.076L673.575 55.615H671.516L667.809 111.069Z" fill="white"/>
<path fill-rule="evenodd" clip-rule="evenodd" d="M632.336 2.46875H717.077L733.67 181.697V194.933H615.961V181.704L632.336 2.46875ZM679.14 144.054L681.611 184.253H723.001V182.191L707.351 13.1495H642.074L626.63 182.191V184.253H663.284L665.755 144.054H679.14ZM677.081 111.07L673.58 55.6161H671.521L667.814 111.07H677.081Z" fill="#FF0000"/>
<path d="M522.828 89.4284C522.828 34.7991 543.214 10.6797 575.338 10.6797C607.256 10.6797 622.906 35.0052 622.906 72.5242V79.121H582.134C580.692 72.9366 580.486 65.7213 580.486 58.5061V43.6635C580.486 40.1589 579.045 37.8913 575.956 37.8913C572.867 37.8913 571.426 40.1589 571.426 43.6635V151.273C571.426 154.778 572.867 157.045 575.956 157.045C579.045 157.045 580.486 154.778 580.486 151.273V102.828H622.906V184.257H598.196L592.43 166.734H590.371C587.694 176.629 582.134 186.318 565.454 186.318C540.949 186.318 522.828 161.58 522.828 107.57V89.4284Z" fill="white"/>
<path fill-rule="evenodd" clip-rule="evenodd" d="M633.572 89.8028H582.092V92.1484H633.572V194.939H590.474L588.709 189.574C582.771 194.422 575.009 197 565.451 197C548.922 197 534.996 188.36 525.751 172.61C516.805 157.371 512.156 135.524 512.156 107.571V89.4295C512.156 61.0639 517.401 38.8143 528.332 23.3891C539.681 7.37437 556.245 0 575.335 0C594.357 0 609.586 7.44166 619.688 21.2109C629.431 34.4924 633.572 52.507 633.572 72.5253V89.8028ZM584.98 178.241C587.495 175.093 589.061 171.322 590.16 167.483C590.231 167.234 590.3 166.985 590.368 166.735H592.427L598.193 184.258H622.903V102.829H580.483V151.274C580.483 154.779 579.042 157.046 575.953 157.046C572.864 157.046 571.423 154.779 571.423 151.274V43.6645C571.423 40.16 572.864 37.8923 575.953 37.8923C579.042 37.8923 580.483 40.16 580.483 43.6645V58.5072C580.483 65.6569 580.686 72.8066 582.092 78.9534C582.105 79.0097 582.118 79.0659 582.131 79.122H622.903V72.5253C622.903 71.1459 622.882 69.7844 622.84 68.4413C621.731 33.2505 606.08 10.6807 575.335 10.6807C543.212 10.6807 522.825 34.8001 522.825 89.4295V107.571C522.825 161.581 540.946 186.319 565.451 186.319C575.229 186.319 581.185 182.99 584.98 178.241Z" fill="#FF0000"/>
<path d="M1334.62 142.719H1361.33V183.852H1334.62V142.719Z" fill="white"/>
<path fill-rule="evenodd" clip-rule="evenodd" d="M1323.95 132.031H1372V194.526H1323.95V132.031ZM1334.62 142.712V183.845H1361.33V142.712H1334.62Z" fill="#FF0000"/>
<path d="M1229.48 93.3569C1229.48 35.1538 1250.64 10.6797 1282.69 10.6797C1314.13 10.6797 1329.74 34.9481 1329.74 74.4358V78.9604H1289.06C1287.62 72.7905 1287.42 65.5922 1287.42 58.3939V43.5861C1287.42 40.0898 1285.98 37.8274 1282.9 37.8274C1279.82 37.8274 1278.38 40.0898 1278.38 43.5861V153.411C1278.38 156.907 1279.82 159.17 1282.9 159.17C1285.98 159.17 1287.42 156.907 1287.42 153.411V137.575C1287.42 130.377 1287.62 123.178 1289.06 117.008H1329.74V122.561C1329.74 162.049 1314.13 186.317 1282.69 186.317C1250.64 186.317 1229.48 161.843 1229.48 103.64V93.3569Z" fill="white"/>
<path fill-rule="evenodd" clip-rule="evenodd" d="M1340.4 89.6422H1289.04V106.329H1340.4V122.562C1340.4 143.466 1336.31 161.927 1326.69 175.447C1316.68 189.511 1301.54 196.999 1282.69 196.999C1263.56 196.999 1246.81 189.473 1235.31 172.9C1224.24 156.95 1218.81 133.75 1218.81 103.641V93.358C1218.81 63.2488 1224.24 40.0487 1235.31 24.0987C1246.81 7.52633 1263.56 0 1282.69 0C1301.54 0 1316.68 7.48853 1326.69 21.5525C1336.31 35.0717 1340.4 53.5335 1340.4 74.4368V89.6422ZM1289.04 117.069C1287.62 123.226 1287.42 130.401 1287.42 137.576V153.412C1287.42 156.908 1285.98 159.171 1282.9 159.171C1279.81 159.171 1278.38 156.908 1278.38 153.412V43.5871C1278.38 40.0908 1279.81 37.8285 1282.9 37.8285C1285.98 37.8285 1287.42 40.0908 1287.42 43.5871V58.395C1287.42 65.5701 1287.62 72.7453 1289.04 78.902C1289.05 78.9218 1289.05 78.9416 1289.06 78.9614H1329.74V74.4368C1329.74 72.3415 1329.69 70.289 1329.6 68.2807C1328.03 32.442 1312.45 10.6807 1282.69 10.6807C1250.64 10.6807 1229.48 35.1548 1229.48 93.358V103.641C1229.48 161.844 1250.64 186.318 1282.69 186.318C1312.74 186.318 1328.33 164.141 1329.64 127.69C1329.71 126.011 1329.74 124.301 1329.74 122.562V117.009H1289.06C1289.05 117.029 1289.05 117.049 1289.04 117.069Z" fill="#FF0000"/>
<path d="M1197.8 142.719H1224.5V183.852H1197.8V142.719Z" fill="white"/>
<path fill-rule="evenodd" clip-rule="evenodd" d="M1187.12 132.031H1235.17V194.526H1187.12V132.031ZM1197.79 142.712V183.845H1224.5V142.712H1197.79Z" fill="#FF0000"/>
<path d="M1138.88 183.842V13.1406H1210.37V46.047H1182.02V83.0667H1206.46V115.973H1182.02V183.842H1138.88Z" fill="white"/>
<path fill-rule="evenodd" clip-rule="evenodd" d="M1128.21 194.524V2.46094H1221.04V56.7287H1192.69V72.387H1217.14V126.655H1192.69V194.524H1128.21ZM1182.02 115.974H1206.47V83.0677H1182.02V46.048H1210.37V13.1417H1138.88V183.843H1182.02V115.974Z" fill="#FF0000"/>
<path d="M289.547 10.6797H330.132L347.465 85.1674H349.579L346.62 10.6797H387.205V186.318H346.62L329.286 111.619H327.173L330.132 186.318H289.547V10.6797Z" fill="white"/>
<path fill-rule="evenodd" clip-rule="evenodd" d="M278.875 0H397.871V197H278.875V0ZM327.17 111.62H329.283L346.617 186.319H387.202V10.6807H346.617L349.576 85.1684H347.462L330.129 10.6807H289.544V186.319H330.129L327.17 111.62Z" fill="#FF0000"/>
<path d="M117.466 186.318L100.133 12.7958V10.6797H142.62L149.384 111.196H151.498L158.051 10.6797H195.888V12.7958L178.555 186.318H117.466Z" fill="white"/>
<path fill-rule="evenodd" clip-rule="evenodd" d="M107.808 197L89.4609 13.3296V0H206.554V13.3296L188.207 197H107.808ZM151.495 111.197H149.382L142.617 10.6807H100.13V12.7968L117.463 186.319H178.552L195.885 12.7968V10.6807H158.048L151.495 111.197Z" fill="#FF0000"/>
<path d="M26.5254 10.6797H93.533L109.598 184.202V186.318H67.1104L64.5738 145.054H50.8341L48.2976 186.318H10.6719V184.202L26.5254 10.6797ZM52.9479 111.196H62.46L58.8666 54.2719H56.7528L52.9479 111.196Z" fill="white"/>
<path fill-rule="evenodd" clip-rule="evenodd" d="M16.7848 0H103.256L120.264 183.709V197H0V183.716L16.7848 0ZM64.571 145.055L67.1075 186.319H109.595V184.203L93.5301 10.6807H26.5225L10.669 184.203V186.319H48.2947L50.8312 145.055H64.571ZM62.4572 111.197L58.8637 54.2729H56.7499L52.945 111.197H62.4572Z" fill="#FF0000"/>
<path d="M392.305 10.6797H484.889V44.5377H460.792V186.318H416.402V44.5377H392.305V10.6797Z" fill="white"/>
<path fill-rule="evenodd" clip-rule="evenodd" d="M381.641 0H495.563V55.2195H471.466V197H405.738V55.2195H381.641V0ZM416.407 44.5388V186.319H460.797V44.5388H484.894V10.6807H392.31V44.5388H416.407Z" fill="#FF0000"/>
<path d="M202.275 10.6797H269.283L285.348 184.202V186.318H242.86L240.324 145.054H226.584L224.048 186.318H186.422V184.202L202.275 10.6797ZM228.698 111.196H238.21L234.617 54.2719H232.503L228.698 111.196Z" fill="white"/>
<path fill-rule="evenodd" clip-rule="evenodd" d="M192.535 0H279.006L296.014 183.709V197H175.75V183.716L192.535 0ZM240.321 145.055L242.858 186.319H285.345V184.203L269.28 10.6807H202.273L186.419 184.203V186.319H224.045L226.581 145.055H240.321ZM238.207 111.197L234.614 54.2729H232.5L228.695 111.197H238.207Z" fill="#FF0000"/>
</svg>
